<svg id="Layer_1" data-name="Layer 1" xmlns="http://www.w3.org/2000/svg" viewBox="0 0 500 500"><defs><style>.cls-1{fill:#1a546d;}.cls-2{font-size:40px;font-family:Montserrat-Bold, Montserrat;font-weight:700;}.cls-3{letter-spacing:0em;}.cls-4{letter-spacing:-0.01em;}</style></defs><title>Logo Svg</title><path class="cls-1" d="M299.94,226.19a114.6,114.6,0,0,0,12.74,24.3c14.68,22,40.5,23.81,59.48,13.23a101.35,101.35,0,0,0,16.9-11.44c2.13-1.82,3.2-2.22,5,.36,6.49,9.46,13.16,18.8,19.84,28.12,1.29,1.8,1.55,2.84-.65,4.27-16.31,10.6-33.41,19.57-52.83,22.53-25.18,3.85-47.93-2.23-67.11-19.42-7.16-6.41-13.69-13.54-20.45-20.39-1.21-1.23-2.75-2.34-1-4.58C281.09,251.12,290.24,239,299.94,226.19Z"/><path class="cls-1" d="M412.34,155.8c-28.26-23.17-59.85-29.31-94.5-17.87-19.33,6.38-32.68,20.52-43.89,36.83-14.23,20.69-29.21,40.82-44.52,60.71-9.32,12.12-19.89,22.79-33.56,30-25.11,13.27-53.53,5.37-64.46-19.35-10.5-23.77-8.19-42.8,8.67-62.11C152.49,169.81,168,165.36,186,170.92c9.66,3,18.15,8.27,26,14.54,2.46,2,3.88,2.15,6-.44q9.31-11.42,19.06-22.44c2-2.31,1.75-3.72-.39-5.7-17-15.76-36.61-25.17-60.3-24.63-36.5.76-64.79,14.68-81.18,49.14-15.22,32-13.48,63,7.42,91,19.54,26.19,47.16,37.53,80.18,33.78,19.15-2.17,36.94-8.19,50.64-22.23,16-16.43,31.15-33.71,44.51-52.45,11.48-16.11,22.67-32.46,35.75-47.33,10-11.32,22.19-17.55,38-15.61,13.82,1.7,26.09,6.52,36.39,15.89,2.44,2.22,3.77,2.13,5.84-.31,6.15-7.21,12.32-14.42,18.85-21.28C415.51,159.89,415.3,158.23,412.34,155.8Z"/><text class="cls-2" transform="translate(83.4 357.41)">CRA<tspan class="cls-3" x="89.36" y="0">F</tspan><tspan x="115.12" y="0">TED CLI</tspan><tspan class="cls-4" x="277.64" y="0">P</tspan><tspan x="306.35" y="0">Z</tspan></text></svg>