<svg id="Layer_1" data-name="Layer 1" xmlns="http://www.w3.org/2000/svg" viewBox="0 0 500 500"><defs><style>.cls-1{fill:#1a546d;}</style></defs><title>Logo Svg</title><path class="cls-1" d="M299.94,255.74A114.6,114.6,0,0,0,312.68,280c14.68,22,40.5,23.81,59.48,13.23a101.35,101.35,0,0,0,16.9-11.44c2.13-1.81,3.2-2.22,5,.36,6.49,9.46,13.16,18.8,19.84,28.12,1.29,1.81,1.55,2.84-.65,4.27-16.31,10.6-33.41,19.57-52.83,22.53-25.18,3.85-47.93-2.23-67.11-19.42-7.16-6.41-13.69-13.54-20.45-20.39-1.21-1.22-2.75-2.34-1-4.58C281.09,280.67,290.24,268.52,299.94,255.74Z"/><path class="cls-1" d="M412.34,185.35c-28.26-23.17-59.85-29.31-94.5-17.87C298.51,173.87,285.16,188,274,204.31,259.72,225,244.74,245.13,229.43,265c-9.32,12.12-19.89,22.79-33.56,30-25.11,13.27-53.53,5.37-64.46-19.34-10.5-23.78-8.19-42.81,8.67-62.12C152.49,199.36,168,194.91,186,200.47c9.66,3,18.15,8.27,26,14.54,2.46,2,3.88,2.15,6-.44q9.31-11.41,19.06-22.44c2-2.31,1.75-3.72-.39-5.7-17-15.76-36.61-25.17-60.3-24.63-36.5.76-64.79,14.68-81.18,49.14-15.22,32-13.48,63,7.42,91,19.54,26.19,47.16,37.53,80.18,33.78,19.15-2.17,36.94-8.19,50.64-22.23,16-16.43,31.15-33.71,44.51-52.45,11.48-16.1,22.67-32.46,35.75-47.33,10-11.32,22.19-17.55,38-15.61,13.82,1.7,26.09,6.53,36.39,15.89,2.44,2.22,3.77,2.13,5.84-.3,6.15-7.22,12.32-14.42,18.85-21.29C415.51,189.44,415.3,187.78,412.34,185.35Z"/></svg>